#!OML:ASF Y:\EmotionMaleHayes\Project 1\Capture day 1\Session 1\Male1.ASF
:FULLY-SPECIFIED
:DEGREES
585
root -10.3604 17.2777 -3.14731 364.38 77.8164 369.417
lowerback 5.93599 2.77862 -7.371
upperback 4.49252 3.51488 -1.38636
thorax 0.996079 1.67386 2.5035
lowerneck -23.2488 3.41548 5.22699
upperneck 31.1191 4.03096 -1.77569
head 14.8531 2.24972 -0.802233
rclavicle 1.54058e-014 3.18055e-015
rhumerus 48.6131 19.1771 -35.343
rradius 40.4938
rwrist -2.38373
rhand 0.528708 -30.413
rfingers 7.12502
rthumb 26.0967 -58.64
lclavicle 1.54058e-014 3.18055e-015
lhumerus 44.4694 -16.4472 27.6865
lradius 39.8929
lwrist 5.10063
lhand -6.88156 -19.9596
lfingers 7.12502
lthumb 18.9847 9.13394
rfemur 6.44518 -3.31014 4.60343
rtibia 14.3325
rfoot -17.1969 -7.34539
rtoes 1.04501
lfemur 11.84 4.02136 -21.729
ltibia 7.11344
lfoot -15.729 10.2971
ltoes -1.69757
586
root -10.3123 17.2742 -3.15039 365.04 77.9824 370.2
lowerback 5.73408 2.74467 -7.38895
upperback 4.67577 3.50735 -1.49119
thorax 1.30645 1.66018 2.42151
lowerneck -23.3038 3.42143 5.23087
upperneck 30.9831 3.97682 -1.65157
head 14.7983 2.24116 -0.762336
rclavicle 2.33572e-014 -2.14687e-014
rhumerus 48.6382 18.9211 -35.4458
rradius 40.5005
rwrist -2.37445
rhand 0.715333 -30.4477
rfingers 7.12502
rthumb 26.2754 -58.6482
lclavicle 2.33572e-014 -2.14687e-014
lhumerus 44.7725 -16.2576 27.7051
lradius 39.7999
lwrist 5.04259
lhand -6.79268 -20.0464
lfingers 7.12502
lthumb 19.0702 9.03869
rfemur 6.10408 -3.41566 4.45823
rtibia 14.3559
rfoot -17.0783 -7.16232
rtoes -0.223839
lfemur 12.0895 3.64739 -22.0498
ltibia 7.13534
lfoot -16.2025 10.1704
ltoes 1.55068
587
root -10.2615 17.2705 -3.15227 365.666 78.1652 370.931
lowerback 5.71586 2.71015 -7.6088
upperback 4.6931 3.45487 -1.41644
thorax 1.32511 1.62664 2.62463
lowerneck -23.2352 3.45677 5.05307
upperneck 30.9785 4.06036 -1.5164
head 14.7759 2.27644 -0.660771
rclavicle -1.72943e-014 -2.06736e-014
rhumerus 48.7233 19.0179 -35.155
rradius 40.5413
rwrist -2.57994
rhand 0.652452 -30.4087
rfingers 7.12502
rthumb 26.2152 -58.6181
lclavicle -1.72943e-014 -2.06736e-014
lhumerus 44.7525 -16.2055 28.1038
lradius 39.6707
lwrist 4.85219
lhand -6.73589 -20.2141
lfingers 7.12502
lthumb 19.1248 8.86558
rfemur 5.82819 -3.42311 4.3392
rtibia 14.2188
rfoot -16.8852 -6.8979
rtoes -0.345843
lfemur 12.3872 3.30216 -22.3478
ltibia 7.04974
lfoot -16.4268 10.1209
ltoes 3.39858
588
root -10.212 17.2664 -3.15303 366.094 78.3716 371.477
lowerback 5.64937 2.63491 -7.78991
upperback 4.79101 3.36146 -1.32229
thorax 1.46062 1.56808 2.83354
lowerneck -23.3767 3.49613 4.98787
upperneck 31.0464 4.1582 -1.57254
head 14.8411 2.30036 -0.651338
rclavicle -3.97569e-015 -2.54444e-014
rhumerus 48.996 19.0332 -34.9379
rradius 40.5022
rwrist -2.64501
rhand 0.595055 -30.3695
rfingers 7.12502
rthumb 26.1602 -58.5871
lclavicle -3.97569e-015 -2.54444e-014
lhumerus 44.6676 -16.1768 28.0919
lradius 39.8175
lwrist 5.06434
lhand -6.77134 -20.1223
lfingers 7.12502
lthumb 19.0907 8.96075
rfemur 5.56751 -3.35795 4.27741
rtibia 14.2365
rfoot -17.0802 -6.45996
rtoes 1.1026
lfemur 12.7156 3.14827 -22.521
ltibia 6.96026
lfoot -16.4374 10.0986
ltoes 3.0543
589
root -10.1651 17.2613 -3.1529 366.57 78.5912 372.075
lowerback 5.89687 2.60271 -7.9085
upperback 4.6881 3.28072 -1.28858
thorax 1.21686 1.53473 2.92413
lowerneck -23.4368 3.45169 4.93994
upperneck 31.2327 4.1192 -1.56177
head 14.9357 2.28326 -0.644069
rclavicle -8.05078e-015 2.46493e-014
rhumerus 48.9282 19.1554 -34.9842
rradius 40.4519
rwrist -2.49014
rhand 0.71103 -30.391
rfingers 7.12502
rthumb 26.2712 -58.5921
lclavicle -8.05078e-015 2.46493e-014
lhumerus 44.6304 -16.4336 28.0409
lradius 39.9347
lwrist 5.26161
lhand -6.8723 -19.9069
lfingers 7.12502
lthumb 18.9936 9.18574
rfemur 5.2686 -3.45039 4.16757
rtibia 14.3735
rfoot -17.2716 -6.06876
rtoes 1.80007
lfemur 13.0054 3.15579 -22.6465
ltibia 6.96283
lfoot -16.4331 10.0906
ltoes 1.61471
590
root -10.1196 17.2564 -3.15043 367.048 78.766 372.643
lowerback 5.88514 2.58847 -8.04807
upperback 4.71654 3.25983 -1.258
thorax 1.24797 1.51926 3.03566
lowerneck -23.3652 3.41434 4.89009
upperneck 31.1384 4.0742 -1.53683
head 14.8729 2.26143 -0.635826
rclavicle -8.74653e-015 -3.97569e-015
rhumerus 48.8986 19.1099 -34.9106
rradius 40.4609
rwrist -2.46894
rhand 0.741808 -30.6327
rfingers 7.12502
rthumb 26.3007 -58.8294
lclavicle -8.74653e-015 -3.97569e-015
lhumerus 44.7653 -16.4382 28.1544
lradius 39.8675
lwrist 5.15523
lhand -6.9349 -19.9522
lfingers 7.12502
lthumb 18.9334 9.14629
rfemur 4.95047 -3.58021 4.06795
rtibia 14.3501
rfoot -17.1883 -5.90195
rtoes 1.28384
lfemur 13.1896 3.32164 -22.7008
ltibia 7.11936
lfoot -16.4338 10.0743
ltoes -0.65417
591
root -10.0727 17.2514 -3.146 368.096 78.9832 373.782
lowerback 5.90477 2.56437 -8.24337
upperback 4.72721 3.22131 -1.31056
thorax 1.24777 1.497 3.09113
lowerneck -23.2896 3.4034 4.99979
upperneck 31.0401 4.02919 -1.58486
head 14.8144 2.24813 -0.684803
rclavicle -2.31584e-014 1.82882e-014
rhumerus 48.8421 19.0495 -34.9515
rradius 40.4323
rwrist -2.58605
rhand 0.652844 -30.7334
rfingers 7.12502
rthumb 26.2155 -58.9428
lclavicle -2.31584e-014 1.82882e-014
lhumerus 44.9046 -16.4894 28.1077
lradius 39.8785
lwrist 5.03606
lhand -6.91877 -20.0772
lfingers 7.12502
lthumb 18.9489 9.01976
rfemur 4.67269 -3.65449 3.85435
rtibia 14.2844
rfoot -17.0476 -5.83475
rtoes 1.59283
lfemur 13.3772 3.31533 -22.9074
ltibia 7.24097
lfoot -16.541 9.98448
ltoes -1.55594
592
root -10.025 17.2454 -3.14135 369.163 79.2205 374.952
lowerback 5.94401 2.53069 -8.43767
upperback 4.74376 3.16826 -1.34479
thorax 1.24382 1.46727 3.16517
lowerneck -23.3505 3.40666 5.1086
upperneck 31.1013 4.00925 -1.64008
head 14.8594 2.24532 -0.728718
rclavicle -1.82882e-014 1.74931e-014
rhumerus 48.8367 18.9676 -35.1195
rradius 40.3605
rwrist -2.56213
rhand 0.495999 -30.6007
rfingers 7.12502
rthumb 26.0654 -58.8323
lclavicle -1.82882e-014 1.74931e-014
lhumerus 45.0498 -16.5318 28.1386
lradius 39.8838
lwrist 4.92947
lhand -6.82994 -20.0716
lfingers 7.12502
lthumb 19.0344 9.017
rfemur 4.32873 -3.49032 3.7267
rtibia 14.3639
rfoot -16.907 -6.10838
rtoes 1.41746
lfemur 13.6532 2.90139 -23.2386
ltibia 7.15022
lfoot -16.8837 9.94351
ltoes 0.431982
593
root -9.97493 17.242 -3.1403 369.513 79.3623 375.367
lowerback 5.89373 2.5167 -8.51961
upperback 4.76626 3.15241 -1.28198
thorax 1.2906 1.45401 3.27948
lowerneck -23.3913 3.39007 4.9782
upperneck 31.1499 4.00522 -1.54565
head 14.8839 2.24242 -0.667341
rclavicle -5.26779e-015 -1.11319e-014
rhumerus 48.8793 18.9387 -35.0692
rradius 40.3192
rwrist -2.51871
rhand 0.249116 -30.4483
rfingers 7.12502
rthumb 25.829 -58.7146
lclavicle -5.26779e-015 -1.11319e-014
lhumerus 45.1373 -16.5444 28.3235
lradius 39.8669
lwrist 4.84917
lhand -6.80548 -20.0476
lfingers 7.12502
lthumb 19.0579 9.03867
rfemur 3.83535 -3.22711 3.77425
rtibia 14.5643
rfoot -16.8006 -6.25688
rtoes 0.889034
lfemur 13.9467 2.51454 -23.466
ltibia 6.98284
lfoot -17.0946 10.0665
ltoes 1.77764
594
root -9.92414 17.2393 -3.13813 370.191 79.4747 376.113
lowerback 5.6604 2.46529 -8.58801
upperback 4.89564 3.11918 -1.30325
thorax 1.55899 1.42379 3.31114
lowerneck -23.3801 3.42698 4.96648
upperneck 31.0457 4.0421 -1.50461
head 14.8343 2.26028 -0.642055
rclavicle 3.97569e-015 2.06736e-014
rhumerus 49.0573 18.8213 -35.022
rradius 40.2491
rwrist -2.5237
rhand 0.223459 -30.3344
rfingers 7.12502
rthumb 25.8044 -58.6042
lclavicle 3.97569e-015 2.06736e-014
lhumerus 45.2102 -16.4458 28.255
lradius 39.9883
lwrist 4.96488
lhand -6.90348 -19.9756
lfingers 7.12502
lthumb 18.9636 9.11996
rfemur 3.41874 -3.18034 3.64416
rtibia 14.6474
rfoot -16.5729 -6.0175
rtoes 1.9964
lfemur 14.2104 2.50603 -23.6327
ltibia 6.9183
lfoot -16.9616 10.0575
ltoes 1.18892
